<svg width="20" height="20" viewBox="0 0 20 20" fill="none" xmlns="http://www.w3.org/2000/svg">
<rect width="20" height="20" fill="white"/>
<path d="M19.6211 6.60417C19.7734 6.44271 20 6.59375 20 6.84896V17.5C20 18.8802 19.1602 20 18.125 20H1.875C0.839844 20 0 18.8802 0 17.5V6.85417C0 6.59375 0.222656 6.44792 0.378906 6.60937C1.25391 7.51562 2.41406 8.66667 6.39844 12.526C7.22266 13.3281 8.61328 15.0156 10 15.0052C11.3945 15.0208 12.8125 13.2969 13.6055 12.526C17.5898 8.66667 18.7461 7.51042 19.6211 6.60417ZM10 13.3333C10.9063 13.3542 12.2109 11.8125 12.8672 11.1771C18.0508 6.16146 18.4453 5.72396 19.6406 4.47396C19.8672 4.23958 20 3.875 20 3.48958V2.5C20 1.11979 19.1602 0 18.125 0H1.875C0.839844 0 0 1.11979 0 2.5V3.48958C0 3.875 0.132812 4.23437 0.359375 4.47396C1.55469 5.71875 1.94922 6.16146 7.13281 11.1771C7.78906 11.8125 9.09375 13.3542 10 13.3333Z" fill="currentColor"/>
</svg>
