<svg width="20" height="20" viewBox="0 0 20 20" fill="none" xmlns="http://www.w3.org/2000/svg">
<rect width="20" height="20" transform="matrix(-1 0 0 1 20 0)" fill="white"/>
<path d="M10.2652 5.18852L16.6664 11.9683V19.2856C16.6664 19.4751 16.6079 19.6568 16.5037 19.7908C16.3995 19.9247 16.2582 20 16.1109 20L12.2202 19.9871C12.0734 19.9861 11.9328 19.9104 11.8292 19.7766C11.7256 19.6427 11.6675 19.4615 11.6675 19.2727V14.9994C11.6675 14.81 11.609 14.6283 11.5048 14.4943C11.4006 14.3603 11.2593 14.2851 11.112 14.2851H8.88992C8.74259 14.2851 8.60129 14.3603 8.49711 14.4943C8.39293 14.6283 8.33441 14.81 8.33441 14.9994V19.2696C8.33463 19.3636 8.32043 19.4567 8.29262 19.5436C8.2648 19.6306 8.22392 19.7096 8.17231 19.7761C8.12071 19.8427 8.05939 19.8955 7.99188 19.9316C7.92437 19.9676 7.85199 19.9862 7.77889 19.9862L3.88961 20C3.74228 20 3.60098 19.9247 3.4968 19.7908C3.39262 19.6568 3.3341 19.4751 3.3341 19.2856V11.9634L9.73395 5.18852C9.80919 5.11054 9.90292 5.06801 9.99956 5.06801C10.0962 5.06801 10.1899 5.11054 10.2652 5.18852V5.18852ZM0.153785 9.79663L3.05634 6.71995V0.535774C3.05634 0.393678 3.10023 0.257402 3.17837 0.156925C3.2565 0.0564476 3.36248 0 3.47297 0H5.41727C5.52777 0 5.63374 0.0564476 5.71187 0.156925C5.79001 0.257402 5.8339 0.393678 5.8339 0.535774V3.77765L8.94234 0.488894C9.24065 0.173224 9.61497 0.000631028 10.0013 0.000631028C10.3876 0.000631028 10.7619 0.173224 11.0602 0.488894L19.8488 9.79663C19.891 9.84147 19.9259 9.89656 19.9515 9.95876C19.9771 10.021 19.993 10.089 19.9981 10.1591C20.0033 10.2292 19.9977 10.2999 19.9816 10.3671C19.9655 10.4344 19.9392 10.497 19.9043 10.5512L19.019 11.9353C18.9842 11.9897 18.9414 12.0347 18.893 12.0678C18.8447 12.101 18.7917 12.1215 18.7372 12.1282C18.6826 12.135 18.6276 12.1279 18.5752 12.1072C18.5228 12.0866 18.4741 12.0529 18.4319 12.008L10.2652 3.35796C10.1899 3.27998 10.0962 3.23745 9.99956 3.23745C9.90292 3.23745 9.80919 3.27998 9.73395 3.35796L1.56687 12.008C1.5247 12.0529 1.47607 12.0867 1.42376 12.1074C1.37144 12.1281 1.31647 12.1353 1.26198 12.1287C1.20749 12.122 1.15455 12.1016 1.10618 12.0687C1.05782 12.0357 1.01498 11.9909 0.98011 11.9366L0.0947616 10.5525C0.0599041 10.498 0.0337704 10.4351 0.0178654 10.3675C0.00196031 10.3 -0.00340268 10.229 0.0020822 10.1588C0.00756708 10.0886 0.0237937 10.0204 0.0498279 9.95824C0.0758622 9.89609 0.111191 9.84117 0.153785 9.79663V9.79663Z" fill="currentColor"/>
</svg>
