<svg version="1.1" xmlns="http://www.w3.org/2000/svg" xmlns:xlink="http://www.w3.org/1999/xlink">
  <defs>
    <symbol id="cancel" viewBox="0 0 24 24">
      <path d="M19 6.41L17.59 5L12 10.59L6.41 5L5 6.41L10.59 12L5 17.59L6.41 19L12 13.41L17.59 19L19 17.59L13.41 12L19 6.41Z" fill="currentColor"/>
    </symbol>
	  <symbol id="flag" viewBox="0 0 24 24">
      <path d="M12.36 6L12.76 8H18V14H14.64L14.24 12H7V6H12.36ZM14 4H5V21H7V14H12.6L13 16H20V6H14.4L14 4Z" fill="currentColor"/>
    </symbol>
	  <symbol id="add" viewBox="0 0 24 24">
      <path d="M12 2C6.48 2 2 6.48 2 12C2 17.52 6.48 22 12 22C17.52 22 22 17.52 22 12C22 6.48 17.52 2 12 2ZM17 13H13V17H11V13H7V11H11V7H13V11H17V13Z" fill="currentColor"/>
    </symbol>
  </defs>
</svg>
